<svg width="293" height="105" viewBox="0 0 293 105" fill="none" xmlns="http://www.w3.org/2000/svg">
<path d="M79.6173 57.9635C79.6173 57.9634 79.6175 57.9633 79.6176 57.9634C80.1318 58.4113 79.9914 59.3101 80.0163 59.9522C80.018 61.2237 80.0111 62.5595 80.0103 63.8327C80.6439 79.0868 70.851 93.8691 56.8744 99.7841C41.1425 106.854 21.5806 101.688 11.1395 88.0843C-5.62671 67.2646 5.13549 34.1508 31.0559 27.3239C38.5832 25.0069 49.1133 25.6326 56.4514 25.6326C57.7992 25.4982 57.8351 26.6817 57.8094 27.77C57.8069 31.9674 57.8163 35.919 57.8146 40.1805C57.7876 40.5442 57.8381 40.9716 57.8086 41.367C57.7647 41.955 57.1592 42.217 56.5696 42.2109C48.3107 42.1247 39.874 40.9883 32.6117 44.371C11.3031 54.1091 17.9484 86.1286 41.4011 86.3624C49.2195 86.5191 56.8453 82.1393 60.6265 75.3065C60.9681 74.5504 60.6325 74.2952 59.9492 74.3415C56.1218 74.3269 45.9726 74.356 42.4132 74.3355C42.2307 74.3288 42.0276 74.242 41.8679 74.1087C41.6604 73.9356 41.6236 73.6472 41.6242 73.377C41.6315 69.9347 41.7258 66.065 41.6237 62.6014C41.622 61.5054 41.6263 60.1697 41.6237 59.1345C41.5544 58.1275 41.8566 57.7208 42.9338 57.7157C55.5078 57.7054 65.6792 57.7122 77.0853 57.6754C77.8928 57.7319 78.9168 57.5016 79.6104 57.958L79.6169 57.9637C79.6171 57.9638 79.6173 57.9637 79.6173 57.9635V57.9635Z" fill="#104367" style="fill:#104367;fill:color(display-p3 0.0627 0.2627 0.4039);fill-opacity:1;"/>
<path d="M67.9931 32.9962C67.6148 32.9962 67.3081 32.6896 67.3081 32.3112L67.3081 17.4981C67.3081 17.1198 67.0014 16.8131 66.6231 16.8131L51.81 16.8131C51.4317 16.8131 51.125 16.5064 51.125 16.1281L51.125 2.685C51.125 2.30669 51.4317 2 51.81 2L81.4362 2C81.8146 2 82.1212 2.30668 82.1212 2.685V32.3112C82.1212 32.6896 81.8146 32.9962 81.4362 32.9962H67.9931Z" fill="#3697D3" style="fill:#3697D3;fill:color(display-p3 0.2118 0.5922 0.8275);fill-opacity:1;"/>
<path d="M119.63 81.0918C106.917 81.0918 97.0156 71.6182 97.0156 58.0496C97.0156 45.0921 106.428 35.374 119.263 35.374C130.387 35.374 138.333 41.975 141.205 51.5097H130.265C128.92 47.0479 124.886 43.6863 119.019 43.6863C111.929 43.6863 106.55 48.8816 106.55 58.294C106.55 66.7286 111.257 73.2073 120.058 73.2073C126.537 73.2073 130.632 69.3568 131.854 63.9171H119.141V56.5216H141.755C142.306 70.8236 133.627 81.0918 119.63 81.0918Z" fill="#0F0F0F" style="fill:#0F0F0F;fill:color(display-p3 0.0600 0.0600 0.0600);fill-opacity:1;"/>
<path d="M154.607 65.2617V81.0918H146.111V48.4537H153.935V54.7491C156.318 50.5929 161.391 48.087 166.648 48.087V56.8883C159.436 56.3382 154.607 58.0496 154.607 65.2617Z" fill="#0F0F0F" style="fill:#0F0F0F;fill:color(display-p3 0.0600 0.0600 0.0600);fill-opacity:1;"/>
<path d="M184.835 81.0918C175.362 81.0918 168.272 73.6352 168.272 64.1616C168.272 54.6268 175.362 47.2313 184.835 47.2313C194.309 47.2313 201.399 54.6268 201.399 64.1616C201.399 73.6352 194.309 81.0918 184.835 81.0918ZM184.835 73.574C189.053 73.574 192.659 70.2124 192.659 64.1616C192.659 58.1107 189.053 54.8102 184.835 54.8102C180.618 54.8102 177.012 58.1107 177.012 64.1616C177.012 70.2124 180.618 73.574 184.835 73.574Z" fill="#0F0F0F" style="fill:#0F0F0F;fill:color(display-p3 0.0600 0.0600 0.0600);fill-opacity:1;"/>
<path d="M231.831 81.0918L225.658 59.8832L219.546 81.0918H211.05L201.76 48.4537H210.011L215.573 69.1123L221.563 48.4537H229.936L235.743 69.1123L241.243 48.4537H249.617L240.265 81.0918H231.831Z" fill="#0F0F0F" style="fill:#0F0F0F;fill:color(display-p3 0.0600 0.0600 0.0600);fill-opacity:1;"/>
<path d="M266.818 81.0918H258.383V55.727H251.782V48.4537H258.383V46.6812C258.383 40.2025 261.867 36.5353 268.652 36.5353C270.73 36.5353 272.502 36.902 273.908 37.5132V44.2364C272.991 43.8697 271.769 43.6863 270.669 43.6863C268.346 43.6863 266.818 44.6032 266.818 46.8646V48.4537H275.314V55.727H266.818V81.0918Z" fill="#0F0F0F" style="fill:#0F0F0F;fill:color(display-p3 0.0600 0.0600 0.0600);fill-opacity:1;"/>
<path d="M289.508 40.8748C289.508 43.7475 287.186 45.8867 283.824 45.8867C280.524 45.8867 278.201 43.7475 278.201 40.8748C278.201 37.8799 280.524 35.7407 283.824 35.7407C287.186 35.7407 289.508 37.8799 289.508 40.8748ZM288.164 81.0918H279.668V48.4537H288.164V81.0918Z" fill="#0F0F0F" style="fill:#0F0F0F;fill:color(display-p3 0.0600 0.0600 0.0600);fill-opacity:1;"/>
</svg>
